# Blender 4.0.2
# www.blender.org
mtllib mesh.mtl
o Trash
v 0.862854 0.001864 0.862834
v -0.862899 0.001859 0.862934
v 0.103143 0.074349 -0.079420
v -0.862926 0.001844 -0.861356
v 0.862797 0.001946 -0.863500
vn -0.0273 0.9991 0.0309
vn 0.0272 0.9996 0.0080
vn -0.0290 0.9991 -0.0314
vn 0.0426 0.9983 0.0391
vn 0.0426 0.9981 -0.0447
vt 0.000006 0.000048
vt 0.554913 0.536955
vt 0.000020 0.999117
vt 1.000000 0.000048
vt 0.999983 0.999998
s 1
usemtl lambert5.002
f 2/1/1 3/2/2 4/3/3
f 1/4/4 3/2/2 2/1/1
f 3/2/2 1/4/4 5/5/5
f 4/3/3 3/2/2 5/5/5
