# Blender 3.6.11
# www.blender.org
mtllib mesh.mtl
o pCube1
v -0.203398 -0.023850 1.208336
v 0.203379 -0.022906 1.196994
v -0.203398 0.023850 1.197284
v 0.203443 0.019120 1.196534
v -0.165446 0.023850 -1.150557
v 0.169589 0.023850 -1.199772
v -0.165259 -0.023851 -1.151023
v 0.169589 -0.023850 -1.199772
v -0.134734 0.023850 1.179523
v -0.129423 -0.023890 1.196082
v -0.105585 0.023850 1.197284
v -0.067674 0.020838 1.198456
v -0.061860 0.023850 -1.031977
v -0.061860 -0.023850 -1.031977
v -0.057950 -0.023770 1.183903
v 0.000275 0.024180 1.183768
v -0.002856 0.023850 -1.119606
v -0.001273 -0.023850 -1.119491
v 0.001038 -0.023580 1.197106
v 0.080724 0.023854 1.182038
v 0.072476 0.023850 -1.197284
v 0.072476 -0.023850 -1.197284
v 0.072611 0.006776 1.175453
v -0.000138 0.006951 1.183434
v -0.105138 -0.001362 1.196525
v -0.134863 0.005191 1.180385
v -0.203809 0.003672 1.201083
v 0.073453 -0.004286 1.195410
v 0.000676 -0.003143 1.193887
v -0.078065 -0.002958 1.181470
v -0.150511 -0.003524 1.208336
v -0.092494 0.023853 1.151909
v -0.096818 0.023850 -0.997498
v -0.096355 -0.023850 -0.996076
v -0.085203 -0.023850 1.183904
v -0.092642 0.006801 1.151850
v -0.098476 -0.023834 1.197354
v -0.123157 0.023850 -1.106970
v -0.123157 -0.023850 -1.106970
v -0.129217 -0.003524 1.195062
v -0.031313 0.023925 1.190879
v -0.022376 0.023850 -0.974678
v -0.022376 -0.023850 -0.974678
v -0.033319 -0.002550 1.197058
v -0.038292 -0.023416 1.197259
v 0.100271 -0.022541 1.199055
v -0.203398 -0.023850 1.208336
v -0.203398 -0.023850 1.208336
v -0.203398 -0.023850 1.208336
v -0.165259 -0.023851 -1.151023
v -0.165259 -0.023851 -1.151023
v -0.129423 -0.023890 1.196082
v -0.129423 -0.023890 1.196082
v -0.129423 -0.023890 1.196082
v 0.000275 0.024180 1.183768
v 0.080724 0.023854 1.182038
v 0.072611 0.006776 1.175453
v -0.000138 0.006951 1.183434
v -0.105585 0.023850 1.197284
v -0.105585 0.023850 1.197284
v -0.105138 -0.001362 1.196525
v -0.105138 -0.001362 1.196525
v -0.105138 -0.001362 1.196525
v -0.105138 -0.001362 1.196525
v -0.105138 -0.001362 1.196525
v -0.134734 0.023850 1.179523
v -0.134734 0.023850 1.179523
v -0.134863 0.005191 1.180385
v -0.134863 0.005191 1.180385
v -0.203809 0.003672 1.201083
v -0.203809 0.003672 1.201083
v -0.203809 0.003672 1.201083
v -0.150511 -0.003524 1.208336
v -0.150511 -0.003524 1.208336
v -0.150511 -0.003524 1.208336
v -0.067674 0.020838 1.198456
v -0.067674 0.020838 1.198456
v -0.067674 0.020838 1.198456
v -0.092494 0.023853 1.151909
v -0.092494 0.023853 1.151909
v -0.078065 -0.002958 1.181470
v -0.078065 -0.002958 1.181470
v -0.078065 -0.002958 1.181470
v -0.085203 -0.023850 1.183904
v -0.085203 -0.023850 1.183904
v -0.092642 0.006801 1.151850
v -0.092642 0.006801 1.151850
v -0.031313 0.023925 1.190879
v -0.165446 0.023850 -1.150557
v -0.165446 0.023850 -1.150557
v -0.129217 -0.003524 1.195062
v -0.129217 -0.003524 1.195062
v -0.033319 -0.002550 1.197058
v -0.033319 -0.002550 1.197058
v -0.033319 -0.002550 1.197058
v -0.038292 -0.023416 1.197259
v -0.038292 -0.023416 1.197259
v 0.001038 -0.023580 1.197106
v 0.169589 0.023850 -1.199772
v 0.169589 0.023850 -1.199772
v 0.169589 -0.023850 -1.199772
v 0.169589 -0.023850 -1.199772
v -0.002856 0.023850 -1.119606
v -0.002856 0.023850 -1.119606
v -0.001273 -0.023850 -1.119491
v -0.001273 -0.023850 -1.119491
v 0.072476 0.023850 -1.197284
v 0.072476 0.023850 -1.197284
v -0.061860 0.023850 -1.031977
v -0.061860 0.023850 -1.031977
v -0.096818 0.023850 -0.997498
v -0.096818 0.023850 -0.997498
v 0.203379 -0.022906 1.196994
v 0.203379 -0.022906 1.196994
v -0.123157 0.023850 -1.106970
v -0.123157 0.023850 -1.106970
v -0.123157 -0.023850 -1.106970
v -0.123157 -0.023850 -1.106970
v 0.100271 -0.022541 1.199055
v -0.022376 0.023850 -0.974678
v -0.022376 0.023850 -0.974678
v 0.000676 -0.003143 1.193887
v -0.098476 -0.023834 1.197354
v -0.098476 -0.023834 1.197354
v -0.061860 -0.023850 -1.031977
v -0.061860 -0.023850 -1.031977
v -0.203398 0.023850 1.197284
v -0.203398 0.023850 1.197284
v -0.022376 -0.023850 -0.974678
v -0.022376 -0.023850 -0.974678
v 0.072476 -0.023850 -1.197284
v 0.072476 -0.023850 -1.197284
v 0.073453 -0.004286 1.195410
v -0.096355 -0.023850 -0.996076
v -0.096355 -0.023850 -0.996076
v 0.203443 0.019120 1.196534
v 0.203443 0.019120 1.196534
v 0.203443 0.019120 1.196534
v 0.203443 0.019120 1.196534
v -0.057950 -0.023770 1.183903
vn -0.2966 -0.0499 0.9537
vn -0.1982 -0.2003 0.9595
vn -0.0003 0.1158 0.9933
vn -0.0506 0.0386 0.9980
vn -0.0441 0.0319 0.9985
vn -0.0545 0.0342 0.9979
vn -0.7102 -0.0161 -0.7038
vn -0.7085 -0.0041 -0.7057
vn -0.6974 -0.0280 -0.7162
vn -0.0141 0.0129 0.9998
vn -0.2147 0.1518 0.9648
vn -0.0066 0.0328 0.9994
vn -0.0006 -1.0000 -0.0002
vn 0.0046 -1.0000 0.0022
vn 0.0004 -1.0000 -0.0014
vn -0.5039 -0.0051 0.8638
vn -0.4906 0.0117 0.8713
vn -0.4692 0.0440 0.8820
vn -0.0051 0.9999 0.0091
vn -0.0015 1.0000 -0.0062
vn 0.0029 1.0000 0.0013
vn -0.0162 -0.3243 0.9458
vn 0.1572 -0.0506 0.9863
vn 0.1945 0.0251 0.9806
vn -0.0651 0.0506 0.9966
vn -0.8835 0.0221 0.4678
vn -0.8837 0.0747 0.4621
vn -0.9023 0.0839 0.4228
vn 0.2797 0.0658 0.9578
vn 0.2560 0.1465 0.9555
vn 0.2864 0.0423 0.9572
vn 0.9623 -0.0039 0.2718
vn 0.9608 0.0087 0.2772
vn 0.9626 0.0051 0.2708
vn 0.0695 0.8693 0.4895
vn -0.1114 0.8371 0.5356
vn 0.0877 0.8965 0.4343
vn 0.5815 0.0291 0.8130
vn 0.4873 0.1714 0.8562
vn 0.5887 0.0497 0.8068
vn 0.8242 -0.0038 -0.5663
vn 0.8206 0.0049 -0.5714
vn 0.8248 0.0024 -0.5654
vn -0.9806 -0.1953 -0.0168
vn -0.9908 -0.0051 -0.1352
vn -0.9905 0.0014 -0.1373
vn -0.0166 0.0091 -0.9998
vn -0.0293 -0.0101 -0.9995
vn -0.0304 -0.0028 -0.9995
vn -0.4707 -0.1067 0.8758
vn 0.1377 0.8697 0.4739
vn 0.0372 0.7398 0.6718
vn 0.0358 0.7203 0.6928
vn 0.1502 -0.3908 0.9081
vn 0.1520 -0.3912 0.9077
vn 0.1481 -0.3890 0.9093
vn 0.7210 0.0153 -0.6928
vn 0.7207 0.0041 -0.6932
vn 0.7229 -0.0000 -0.6909
vn 0.9697 0.0060 -0.2442
vn 0.9721 0.0006 -0.2347
vn 0.9723 -0.0039 -0.2337
vn -0.3343 -0.4900 0.8051
vn 0.1223 0.9260 0.3572
vn 0.0801 0.9358 0.3433
vn 0.9999 -0.0048 -0.0116
vn 0.9999 -0.0029 -0.0166
vn 0.9998 0.0048 -0.0169
vn 0.2413 0.1665 0.9561
vn 0.3633 0.2139 0.9068
vn 0.1817 0.9568 0.2269
vn 0.1860 0.9567 0.2239
vn 0.1731 0.9612 0.2147
vn 0.0153 0.2127 0.9770
vn -0.5581 0.1409 0.8177
vn -0.7236 -0.0132 -0.6901
vn -0.7184 0.0939 -0.6892
vn -0.5815 -0.1460 -0.8004
vn -0.7245 -0.0049 -0.6893
vn -0.8821 0.0050 0.4711
vn 0.0097 -0.9999 0.0055
vn 0.0068 -1.0000 0.0010
vn 0.0777 -0.9936 -0.0820
vn 0.0052 -0.9999 0.0117
vn 0.0030 -1.0000 0.0049
vn -0.0058 -1.0000 0.0021
vn 0.0062 -1.0000 0.0077
vn -0.0000 -1.0000 -0.0000
vn -0.0004 -1.0000 -0.0022
vn 0.0013 -1.0000 0.0002
vn -0.0059 -1.0000 0.0010
vn -0.0054 -0.9999 -0.0120
vn -0.0107 -0.9989 -0.0462
vn -0.0040 -0.9995 0.0324
vn -0.9996 0.0192 -0.0188
vn -0.9998 -0.0086 -0.0200
vn -0.9999 0.0016 -0.0127
vn -1.0000 -0.0023 -0.0066
vn -0.9997 -0.0173 -0.0163
vn -0.5200 -0.0349 0.8534
vn 0.0259 0.9997 0.0009
vn 0.0390 0.9992 -0.0047
vn -0.0008 1.0000 -0.0027
vn -0.0090 0.9999 0.0048
vn -0.0044 1.0000 0.0046
vn 0.1591 0.9780 0.1347
vn -0.0034 1.0000 -0.0001
vn 0.0020 0.9999 -0.0160
vn -0.0154 0.9994 0.0299
vn -0.0087 0.9927 0.1207
vn -0.0000 1.0000 0.0001
vn -0.0042 1.0000 0.0045
vn -0.0000 1.0000 -0.0000
vn -0.0764 -0.3267 0.9420
vn 0.5286 0.0371 0.8480
vn 0.5285 0.0402 0.8480
vn 0.2447 0.1720 0.9542
vn 0.9634 -0.0082 0.2678
vn 0.0380 0.1570 0.9869
vn 0.0411 0.1457 0.9885
vn -0.0129 -0.0506 0.9986
vn 0.0039 0.0087 1.0000
vn 0.1962 0.1531 0.9685
vn 0.7026 -0.1592 0.6935
vn 0.8225 -0.0005 -0.5687
vn -0.1258 -0.3025 0.9448
vn -0.9990 -0.0330 -0.0314
vn -0.0192 -0.0000 -0.9998
vn -0.1614 0.8619 0.4807
vn -0.0563 0.8738 0.4829
vn -0.0970 0.2523 0.9628
vn -0.1027 0.2502 0.9627
vn -0.0951 0.2526 0.9629
vn 0.7211 0.0132 -0.6927
vn 0.9720 -0.0000 -0.2349
vn 0.1847 0.6973 0.6926
vn 1.0000 -0.0037 -0.0040
vn -0.7319 0.0091 -0.6814
vt 0.364045 0.215413
vt 0.318373 0.259433
vt 0.302577 0.214453
vt 0.204588 0.214453
vt 0.273351 0.214488
vt 0.262460 0.264772
vt 0.321854 0.168878
vt 0.227031 0.033732
vt 0.224825 0.168878
vt 0.941245 0.309543
vt 0.654751 0.259433
vt 0.941245 0.216542
vt 0.178405 0.358737
vt 0.139296 0.361754
vt 0.147134 0.848533
vt 0.192967 0.320012
vt 0.192683 0.280781
vt 0.033516 0.361685
vt 0.032702 0.847481
vt 0.008507 0.351933
vt 0.651899 0.280781
vt 0.491143 0.320012
vt 0.488605 0.280781
vt 0.205177 0.259433
vt 0.286114 0.280781
vt 0.343171 0.313347
vt 0.041015 0.274270
vt 0.286443 0.320012
vt 0.257474 0.320012
vt 0.433723 0.168878
vt 0.321854 0.033732
vt 0.489027 0.168878
vt 0.433723 0.033732
vt 0.702464 0.033732
vt 0.977610 0.168878
vt 0.977610 0.033732
vt 0.417830 0.266551
vt 0.490993 0.259433
vt 0.158054 0.259433
vt 0.041015 0.214453
vt 0.026744 0.033732
vt 0.148184 0.168878
vt 0.148184 0.033732
vt 0.049965 0.949061
vt 0.049965 0.932984
vt 0.966962 0.932623
vt 0.421838 0.320357
vt 0.713134 0.223354
vt 0.405011 0.215412
vt 0.702464 0.168878
vt 0.493513 0.033732
vt 0.130683 0.854291
vt 0.138230 0.861454
vt 0.151893 0.881350
vt 0.168524 0.898733
vt 0.190424 0.899294
vt 0.198048 0.358737
vt 0.114741 0.888086
vt 0.124407 0.878366
vt 0.106312 0.356244
vt 0.132966 0.361754
vt 0.129988 0.358737
vt 0.122981 0.358838
vt 0.152602 0.358737
vt 0.143405 0.358737
vt 0.049965 0.950871
vt 0.947861 0.950871
vt 0.048676 0.942964
vt 0.947861 0.932623
vt 0.045738 0.932623
vt 0.072566 0.355260
vt 0.100243 0.351933
vt 0.049329 0.841729
vt 0.092618 0.892490
vt 0.070719 0.891929
vt 0.053730 0.874547
vt 0.040425 0.854650
vt 0.054376 0.355038
vt 0.047314 0.353378
vt 0.039297 0.351933
vt 0.023991 0.355445
vt 0.030564 0.351933
vt 0.016962 0.881261
vt 0.026602 0.871562
vt 0.669639 0.320012
vt 0.041015 0.320012
vt 0.492813 0.217943
vt 0.027066 0.168878
vt 0.966962 0.950871
s 1
usemtl Planks_Tex.003
f 140/1/1 81/2/2 84/3/3
f 53/4/4 124/5/5 63/6/6
f 109/7/7 135/8/8 112/9/9
f 138/10/10 28/11/11 113/12/12
f 119/13/13 15/14/14 130/15/15
f 65/6/16 66/16/17 68/17/18
f 32/18/19 111/19/20 128/20/21
f 57/21/22 16/22/23 58/23/24
f 92/24/25 53/4/4 63/6/6
f 86/25/26 82/2/27 76/26/28
f 67/16/29 71/27/30 26/17/31
f 80/28/32 59/29/33 61/6/34
f 91/24/35 25/6/36 69/17/37
f 83/2/38 62/6/39 123/5/40
f 121/30/41 125/31/42 110/7/43
f 103/32/44 129/33/45 42/30/46
f 131/34/47 99/35/48 102/36/49
f 140/1/1 93/37/50 81/2/2
f 133/11/51 24/23/52 122/38/53
f 73/39/54 48/40/55 52/4/56
f 7/41/57 116/42/58 117/43/59
f 34/8/60 115/42/61 33/9/62
f 78/26/63 81/2/2 93/37/50
f 69/17/37 74/39/64 91/24/35
f 74/39/64 69/17/37 72/27/65
f 139/44/66 114/45/67 8/46/68
f 58/23/24 41/47/69 95/37/70
f 87/25/71 64/6/72 30/2/73
f 28/11/11 46/48/74 113/12/12
f 140/1/1 96/49/75 93/37/50
f 107/50/76 105/51/77 17/32/78
f 109/7/7 126/31/79 135/8/8
f 79/28/80 86/25/26 76/26/28
f 134/52/81 14/53/82 130/15/15
f 106/54/83 132/55/84 101/56/85
f 101/56/85 2/57/86 130/15/15
f 2/57/86 119/13/13 130/15/15
f 130/15/15 106/54/83 101/56/85
f 50/58/87 118/59/88 134/52/81
f 47/60/89 50/58/87 134/52/81
f 85/61/90 37/62/91 54/63/92
f 54/63/92 47/60/89 85/61/90
f 98/64/93 97/65/94 15/14/14
f 47/60/89 134/52/81 130/15/15
f 85/61/90 47/60/89 130/15/15
f 119/13/13 98/64/93 15/14/14
f 15/14/14 85/61/90 130/15/15
f 127/66/95 90/67/96 70/68/97
f 90/67/96 51/69/98 70/68/97
f 51/69/98 49/70/99 70/68/97
f 65/6/16 60/29/100 66/16/17
f 56/71/101 136/72/102 120/73/103
f 136/72/102 100/74/104 120/73/103
f 100/74/104 108/75/105 104/76/106
f 120/73/103 13/77/107 111/19/20
f 100/74/104 104/76/106 120/73/103
f 55/78/108 56/71/101 32/18/19
f 88/79/109 55/78/108 32/18/19
f 56/71/101 120/73/103 32/18/19
f 32/18/19 77/80/110 88/79/109
f 9/81/111 11/82/111 32/18/19
f 32/18/19 120/73/103 111/19/20
f 128/20/21 9/81/111 32/18/19
f 89/83/112 128/20/21 111/19/20
f 111/19/20 38/84/113 89/83/112
f 57/21/22 20/85/114 16/22/23
f 40/24/115 31/39/115 10/4/116
f 67/16/29 3/86/117 71/27/30
f 36/25/118 80/28/32 61/6/34
f 46/48/74 28/11/11 29/38/119
f 29/38/119 19/87/120 46/48/74
f 19/87/120 29/38/119 94/37/121
f 45/49/122 19/87/120 94/37/121
f 41/47/69 12/26/123 95/37/70
f 35/3/124 83/2/38 123/5/40
f 121/30/41 43/33/125 125/31/42
f 57/21/22 137/10/126 20/85/114
f 103/32/44 18/51/127 129/33/45
f 131/34/47 21/50/128 99/35/48
f 133/11/51 4/10/129 23/21/130
f 133/11/51 23/21/130 24/23/52
f 75/39/131 27/27/132 1/40/133
f 7/41/57 5/88/134 116/42/58
f 34/8/60 39/43/135 115/42/61
f 122/38/53 24/23/52 44/37/136
f 8/46/68 6/89/137 139/44/66
f 58/23/24 16/22/23 41/47/69
f 107/50/76 22/34/138 105/51/77
