# Blender 4.0.2
# www.blender.org
mtllib mesh.mtl
o Cylinder001_Retopo
v 6.307280 5.209092 -1.626461
v 6.685573 5.053695 -1.168589
v 6.759296 4.453757 -1.418135
v 5.611501 5.941791 0.583018
v 0.643808 9.063285 -0.826594
v -0.572876 -0.120464 2.257580
v 0.482064 0.057541 1.125094
v -2.496575 2.687600 4.987849
v -1.322438 2.333336 4.886794
v -0.497515 5.540463 5.686792
v 1.096434 3.559064 4.901548
v 1.426232 2.889064 4.917480
v 5.252904 3.231962 2.464319
v 3.281372 3.520816 3.928822
v 4.253788 4.734168 3.189429
v 3.614340 5.921422 2.393121
v 5.727488 4.559724 1.871150
v 6.868359 4.766869 0.244607
v 5.641077 5.753768 1.435297
v 1.039667 9.232956 -0.657166
v 1.393165 9.402320 -0.956939
v 1.205971 8.924181 -1.023489
v 1.187722 8.793724 -1.232261
v 1.138760 9.318142 -0.969691
v 0.346830 9.806372 -0.647261
v 0.305557 9.445745 -0.510137
v 0.710569 9.151245 -1.138939
v 0.485750 9.529492 -0.260141
v 0.753299 9.073785 -1.109354
v 0.710807 9.482385 -1.378996
v 0.540491 9.458094 -1.230554
v 1.136177 8.879279 -1.521256
v 0.685340 9.589282 -1.068701
v -0.086547 9.736503 -1.226784
v 0.032851 9.669504 -1.152587
v -2.299954 0.608363 4.448184
v -3.022350 2.174824 4.618632
v -0.197143 0.487907 4.892032
v -0.746981 0.970259 -6.874874
v 0.526301 0.490505 -6.418244
v -1.696529 0.670013 -6.134530
v 2.101872 0.498662 -6.204280
v 1.785441 0.247694 -4.600556
v 1.776426 0.937547 -7.027272
v 3.159884 0.393276 -4.563556
v 0.952253 0.024316 -3.973282
v 0.665643 1.158515 -7.284786
v -4.405752 1.222374 3.002543
v -5.428097 3.919187 1.313745
v -5.778941 1.559970 0.602030
v -4.928173 0.293927 0.706949
v -4.455448 4.095152 2.194116
v -6.550502 4.261654 -2.063845
v -1.645689 1.091618 5.036849
v 0.067282 1.238886 5.306684
v 5.701240 4.249497 -3.206506
v 5.546959 4.234277 -2.576130
v 6.589016 3.148147 -2.207902
v 5.690102 3.658751 -4.476691
v 4.295594 5.450672 -4.390408
v 6.987331 4.120621 -0.205340
v 6.670858 3.706817 -0.614097
v 6.171104 4.076747 -2.062536
v -4.604625 6.093689 0.887235
v -6.111547 5.385465 -1.047249
v -2.940260 5.822390 2.850872
v -3.254911 3.874841 4.159530
v -2.380141 5.884602 4.019210
v -0.805956 6.275935 5.297745
v -1.716134 7.517889 2.425721
v 6.616126 3.603004 0.914920
v -5.890976 5.889292 -2.585875
v -5.980937 5.638323 -3.260839
v -4.973657 6.841445 -1.531053
v -4.171795 7.267547 -2.914372
v -0.304444 6.173393 5.469368
v 0.722264 6.802253 4.853187
v 0.764222 8.712963 -1.773993
v 0.480364 9.075123 -1.373141
v 0.660846 9.025846 -1.293183
v 0.794890 9.226880 -1.094845
v -0.218961 8.918057 -0.359983
v -0.400831 8.657891 0.118014
v -0.507499 8.743092 0.683072
v 0.231608 8.869672 0.612366
v 2.333682 7.209232 2.016128
v 0.974971 8.768490 0.700734
v 3.019882 7.638341 0.848805
v 1.180396 9.420413 -1.068046
v 1.186190 9.263012 -1.178431
v 1.333910 9.547743 -1.183601
v 0.907742 9.225280 -1.281545
v 0.959004 9.335444 -1.356173
v 0.825430 9.488932 -0.378001
v 1.118134 9.411028 -0.326513
v 0.968910 9.197962 -0.179271
v -2.274951 -0.243619 -3.511297
v -1.759720 0.231798 -1.954427
v -3.554442 -0.115662 -1.925071
v 0.736550 0.567550 -1.972191
v 1.401528 0.599019 -0.199963
v 2.469725 0.522512 -0.509023
v -0.290959 8.332127 2.084531
v 1.010643 7.730290 3.180328
v 0.626639 6.243687 5.389781
v 0.428521 5.661030 5.685513
v 2.473831 4.569320 4.806290
v 6.380422 3.197491 0.822110
v 5.613694 1.930497 2.246574
v 6.788846 2.742562 -0.596901
v 6.268870 1.693294 -0.129233
v 5.831428 2.636574 -4.413758
v 5.759367 0.905592 -2.995637
v 5.354249 1.159359 -4.556782
v 4.383107 1.454863 -6.146350
v 4.880812 3.109447 -6.249650
v 2.750084 1.760984 -7.410990
v 4.430261 0.645443 -5.240186
v 5.515271 0.182503 -1.591788
v 4.585713 0.063866 -3.393791
v 4.187479 0.007227 -0.335103
v 4.905278 -0.001623 1.191930
v 2.305500 -0.078472 2.702386
v 2.774121 0.177379 -2.465024
v -1.000882 0.003872 3.555685
v 2.481038 0.284303 3.871243
v -3.757821 0.290400 2.631661
v -3.705251 -0.167873 0.575998
v -4.617949 0.120505 -2.202583
v -3.264071 0.223989 -4.341542
v -5.585853 1.110854 -2.573609
v -4.068945 1.328970 -4.760089
v -2.581848 2.446786 -6.582479
v -1.180001 2.423428 -7.424302
v 0.591022 1.918800 -7.777050
v 0.558473 3.007668 -7.920639
v 2.595611 3.285369 -7.585543
v 3.994283 3.182865 -6.988723
v 3.648486 4.476271 -6.456845
v 3.417186 5.558837 -4.868624
v 4.758308 5.644634 -1.699806
v 4.188690 6.859787 -0.718950
v 4.166345 6.590201 0.082440
v 3.439772 6.625153 -1.755518
v 2.155305 6.121083 -5.367933
v 1.529789 4.881104 -6.570352
v 3.087015 5.607751 -5.811964
v 0.207328 5.034118 -7.065750
v -0.097680 3.865463 -7.733835
v -3.429985 4.266724 -6.126626
v -2.123552 5.220175 -6.290416
v -5.878700 4.525018 -4.123951
v -4.645707 6.989789 -0.505157
v -2.335425 8.135083 -0.119824
v -0.728768 9.015473 -0.719127
v -1.818109 8.403911 -1.482672
v -2.112840 8.388090 -2.337996
v -4.889359 6.121247 -4.164111
v -0.168716 6.439569 -5.437794
v 0.446270 7.769341 -3.382497
v -0.738188 8.072180 -2.890356
v -2.749997 7.911554 0.657979
v -2.620762 7.185814 1.301483
v 3.816956 0.550207 3.275956
v 3.721288 1.915849 4.164341
v 1.879516 1.453592 5.134453
v 5.396605 0.547492 1.709297
v -0.101606 7.561937 2.894271
v 1.181120 9.274642 -0.363251
vn 0.0634 -0.0853 0.9943
vn 0.2229 -0.0973 0.9700
vn -0.2076 0.1101 0.9720
vn 0.7835 0.0936 0.6144
vn 0.6765 0.5993 0.4280
vn 0.5064 0.6564 0.5592
vn 0.7419 0.6510 0.1604
vn 0.6469 0.1677 -0.7439
vn 0.9821 0.1873 -0.0192
vn -0.0309 -0.5812 0.8132
vn 0.1505 -0.9715 0.1833
vn -0.9975 -0.0127 -0.0693
vn 0.6485 -0.1007 0.7545
vn 0.3390 0.1409 0.9302
vn 0.7404 0.4434 0.5052
vn -0.4532 -0.8627 -0.2242
vn -0.6336 -0.6642 -0.3968
vn -0.2797 0.0227 -0.9598
vn 0.0502 -0.7509 0.6585
vn -0.2881 -0.2266 0.9304
vn -0.4078 -0.6658 0.6248
vn -0.2862 -0.7040 -0.6500
vn -0.0280 -0.6420 -0.7662
vn 0.0440 -0.8978 -0.4382
vn 0.2213 -0.7308 -0.6457
vn 0.1241 -0.9889 -0.0819
vn -0.7028 -0.2743 0.6564
vn -0.8096 0.1318 0.5720
vn -0.9341 -0.2712 0.2321
vn -0.9994 0.0266 -0.0208
vn 0.0131 -0.1704 0.9853
vn 0.7041 0.6983 -0.1289
vn 0.6590 0.7306 -0.1788
vn 0.9726 0.1329 -0.1910
vn 0.8432 0.4007 -0.3585
vn 0.3977 0.7355 -0.5486
vn 0.8825 0.1576 -0.4432
vn 0.7414 0.1599 -0.6517
vn 0.9893 -0.1343 -0.0574
vn -0.7523 0.2592 0.6057
vn -0.6238 0.5853 0.5180
vn -0.8764 0.4058 0.2593
vn -0.3356 0.5966 0.7290
vn -0.6937 0.7008 0.1664
vn -0.7038 0.4913 0.5131
vn 0.7933 -0.3222 0.5166
vn 0.9140 0.3748 0.1554
vn 0.9913 -0.1288 0.0270
vn -0.8125 0.5790 -0.0673
vn -0.5012 0.8494 -0.1654
vn -0.7925 0.4991 -0.3505
vn 0.2223 0.9616 0.1607
vn 0.4592 0.7452 0.4835
vn 0.3880 0.1528 0.9089
vn 0.6006 -0.5437 0.5862
vn 0.0703 0.8862 -0.4580
vn 0.9865 -0.1535 0.0569
vn 0.7413 0.5034 -0.4439
vn 0.8600 0.5095 -0.0284
vn 0.3645 0.4466 -0.8171
vn -0.5125 -0.6981 -0.5000
vn -0.8282 -0.5517 0.0985
vn -0.4773 -0.5102 0.7155
vn -0.8637 -0.4846 -0.1384
vn 0.1308 -0.9912 -0.0222
vn 0.1949 -0.9736 0.1187
vn -0.0463 -0.9939 -0.1003
vn -0.6351 0.7708 -0.0509
vn 0.1354 0.8428 0.5209
vn 0.5172 0.8212 0.2410
vn 0.2146 0.7595 0.6140
vn 0.2450 0.8489 0.4684
vn 0.3181 0.4964 0.8077
vn 0.6967 0.2765 0.6620
vn 0.1391 0.1053 0.9847
vn 0.4870 -0.0495 0.8720
vn 0.9374 -0.3466 -0.0343
vn 0.7407 -0.1693 0.6501
vn 0.9531 -0.0808 -0.2918
vn 0.9278 -0.3671 0.0659
vn 0.8331 -0.5101 -0.2140
vn 0.3399 -0.9178 0.2050
vn 0.0369 -0.9937 0.1060
vn -0.1039 -0.9858 -0.1318
vn -0.1902 -0.9782 0.0830
vn 0.0343 -0.9994 -0.0091
vn -0.0623 -0.9621 0.2656
vn 0.0909 -0.9803 0.1751
vn -0.0712 -0.9790 -0.1911
vn 0.0815 -0.9782 -0.1910
vn -0.5589 -0.8183 -0.1339
vn -0.4304 -0.7867 -0.4426
vn -0.4067 -0.1778 -0.8961
vn -0.0348 -0.3186 -0.9472
vn 0.5482 0.1457 -0.8236
vn 0.4299 0.5853 -0.6875
vn 0.7782 0.1291 -0.6146
vn 0.5879 0.7361 -0.3355
vn 0.3803 0.6778 -0.6292
vn 0.5684 0.8120 -0.1327
vn 0.6325 0.7745 0.0072
vn 0.8535 0.4726 -0.2196
vn 0.4762 0.8318 0.2853
vn 0.6592 0.7501 -0.0527
vn 0.6476 0.6974 -0.3070
vn 0.5570 0.7206 -0.4130
vn 0.4771 0.7060 -0.5234
vn 0.1413 0.6318 -0.7622
vn -0.0363 0.7700 -0.6371
vn -0.1818 0.3057 -0.9346
vn 0.0804 0.6108 -0.7877
vn -0.5739 -0.2342 -0.7847
vn -0.6307 -0.4807 -0.6092
vn -0.8121 0.0367 -0.5824
vn -0.8195 -0.4974 -0.2845
vn -0.3655 0.9306 0.0202
vn -0.2991 0.9242 -0.2374
vn -0.2925 0.5765 -0.7630
vn -0.5131 0.6140 -0.5998
vn -0.0460 0.8178 -0.5737
vn 0.0423 0.7793 -0.6252
vn -0.0220 0.8742 -0.4851
vn -0.6757 0.4608 -0.5754
vn -0.5469 0.8102 0.2109
vn -0.2270 0.6874 0.6899
vn -0.1774 0.9616 0.2094
vn -0.4665 0.8085 0.3589
vn -0.3600 0.9139 0.1877
vn -0.7576 0.5084 0.4093
vn -0.5390 0.8422 -0.0116
vn 0.2683 0.2500 -0.9303
vn -0.0433 0.0122 -0.9990
vn -0.4535 -0.8320 0.3197
vn -0.4070 -0.0025 0.9134
vn -0.0421 0.6086 0.7924
vn 0.2273 -0.2558 0.9396
vn 0.6808 -0.0014 0.7324
vn 0.7045 -0.5980 0.3823
vn 0.7512 -0.2536 0.6095
vn 0.6157 -0.7843 -0.0758
vn 0.2449 -0.8272 0.5057
vn 0.2643 0.9373 0.2272
vn -0.0333 -0.9987 0.0380
vn -0.1738 -0.9035 -0.3917
vn 0.1166 -0.9692 -0.2171
vn -0.7604 -0.4737 0.4444
vn -0.8378 0.4003 0.3713
vn -0.7646 0.0330 0.6437
vn -0.1579 -0.9031 0.3995
vn -0.4007 -0.9120 0.0883
vn -0.6797 0.2704 0.6818
vn -0.3505 0.0821 0.9329
vn -0.6822 -0.0428 0.7299
vn -0.2882 -0.7769 -0.5597
vn -0.6491 -0.7494 0.1306
vn -0.0259 -0.9997 -0.0001
vn -0.2120 -0.9732 -0.0889
vn 0.5856 -0.4860 -0.6487
vn 0.7750 -0.4841 -0.4061
vn 0.3089 -0.4029 -0.8615
vn 0.3957 -0.8180 -0.4175
vn 0.2636 -0.9551 -0.1356
vn -0.5424 0.1852 -0.8195
vn -0.5737 0.8086 -0.1307
vn -0.6122 0.7431 0.2703
vn -0.4092 0.9095 0.0736
vn 0.5623 -0.6046 0.5641
vn 0.2043 0.8566 0.4739
vn 0.1919 -0.3149 -0.9295
vt 0.338674 0.610497
vt 0.288716 0.645883
vt 0.257212 0.597391
vt 0.170060 0.749338
vt 0.143209 0.731761
vt 0.162689 0.681204
vt 0.028488 0.559704
vt 0.020200 0.549600
vt 0.022329 0.544598
vt 0.020300 0.452100
vt 0.015432 0.442602
vt 0.044451 0.439521
vt 0.250963 0.699190
vt 0.302245 0.671753
vt 0.233833 0.760581
vt 0.019489 0.422943
vt 0.018413 0.424303
vt 0.031499 0.418243
vt 0.391219 0.654285
vt 0.382184 0.604646
vt 0.408383 0.588336
vt 0.332997 0.174540
vt 0.296823 0.136303
vt 0.338671 0.133352
vt 0.524179 0.010573
vt 0.568871 0.056105
vt 0.516900 0.030100
vt 0.399519 0.510157
vt 0.325889 0.461579
vt 0.395200 0.441200
vt 0.313246 0.383921
vt 0.366515 0.649729
vt 0.075422 0.857901
vt 0.080608 0.837312
vt 0.118021 0.864509
vt 0.079400 0.910600
vt 0.095361 0.796031
vt 0.119872 0.808395
vt 0.108087 0.832637
vt 0.148004 0.823459
vt 0.321534 0.492218
vt 0.254697 0.460836
vt 0.283721 0.410742
vt 0.239027 0.578830
vt 0.192523 0.526083
vt 0.254900 0.545000
vt 0.183946 0.789559
vt 0.147084 0.781917
vt 0.149800 0.802800
vt 0.261021 0.387007
vt 0.205228 0.374903
vt 0.269845 0.365202
vt 0.091156 0.557897
vt 0.126678 0.627703
vt 0.040678 0.518383
vt 0.008430 0.387574
vt 0.013900 0.385600
vt 0.009200 0.393900
vt 0.025772 0.375550
vt 0.021004 0.372589
vt 0.020470 0.392893
vt 0.029207 0.410063
vt 0.024183 0.399529
vt 0.030039 0.537265
vt 0.017967 0.537813
vt 0.546572 0.091625
vt 0.553367 0.174301
vt 0.512800 0.162100
vt 0.116639 0.506498
vt 0.143271 0.542254
vt 0.096405 0.511337
vt 0.205977 0.606625
vt 0.160805 0.596010
vt 0.225907 0.612814
vt 0.202372 0.708221
vt 0.244543 0.614745
vt 0.244640 0.665537
vt 0.180211 0.842647
vt 0.192300 0.802600
vt 0.110892 0.929650
vt 0.213007 0.850552
vt 0.184156 0.927837
vt 0.481000 0.403000
vt 0.486711 0.322783
vt 0.502600 0.428193
vt 0.481000 0.123582
vt 0.502600 0.234694
vt 0.481000 0.231100
vt 0.596400 0.136200
vt 0.642386 0.159830
vt 0.646161 0.204997
vt 0.435192 0.351574
vt 0.409097 0.269988
vt 0.420396 0.225295
vt 0.287685 0.197768
vt 0.273048 0.152855
vt 0.170189 0.116486
vt 0.134223 0.149895
vt 0.143174 0.094787
vt 0.028810 0.710416
vt 0.061369 0.766439
vt 0.085459 0.699415
vt 0.120394 0.736530
vt 0.119463 0.787406
vt 0.089021 0.643156
vt 0.064910 0.700541
vt 0.063210 0.161364
vt 0.085858 0.182381
vt 0.117285 0.192005
vt 0.169068 0.200262
vt 0.113210 0.220802
vt 0.231478 0.197493
vt 0.196469 0.218919
vt 0.311172 0.239946
vt 0.371373 0.286407
vt 0.294150 0.339935
vt 0.394796 0.355093
vt 0.126858 0.420499
vt 0.145368 0.384645
vt 0.221121 0.275512
vt 0.243428 0.345293
vt 0.112602 0.362550
vt 0.153308 0.271408
vt 0.085430 0.323855
vt 0.049680 0.384619
vt 0.064055 0.407152
vt 0.197547 0.487263
vt 0.088513 0.482318
vt 0.178784 0.469045
vt 0.105024 0.493626
vt 0.252928 0.513719
vt 0.048006 0.467275
vt 0.096121 0.450241
vt 0.196773 0.138985
vt 0.243555 0.169969
vt 0.437000 0.520600
vt 0.346596 0.580810
vt 0.237197 0.598094
vt 0.338054 0.695512
vt 0.296973 0.736967
vt 0.281374 0.822023
vt 0.255993 0.789661
vt 0.239716 0.904672
vt 0.389460 0.746030
vt 0.301104 0.838015
vt 0.362183 0.734384
vt 0.056270 0.504491
vt 0.628996 0.083494
vt 0.545781 0.015007
vt 0.601398 0.026591
vt 0.020600 0.542000
vt 0.047330 0.425717
vt 0.045054 0.488239
vt 0.038307 0.518252
vt 0.018000 0.529900
vt 0.010300 0.521600
vt 0.016395 0.576144
vt 0.043500 0.436900
vt 0.016200 0.507100
vt 0.318200 0.543700
vt 0.023300 0.420400
vt 0.366316 0.564499
vt 0.365030 0.212867
vt 0.434978 0.439725
vt 0.080000 0.082700
vt 0.035455 0.100797
vt 0.502600 0.753489
vt 0.494788 0.807089
vt 0.480274 0.700801
vt 0.541204 0.231698
vt 0.664650 0.131259
vt 0.107900 0.054200
vt 0.183558 0.059588
vt 0.147611 0.968923
vt 0.269307 0.099962
vt 0.226928 0.104074
vt 0.153278 0.021930
vt 0.191238 0.026629
vt 0.502600 0.637900
vt 0.481000 0.604700
vt 0.502600 0.572786
vt 0.711900 0.177500
vt 0.480892 0.528470
vt 0.169100 0.985300
vt 0.209477 0.964883
vt 0.482947 0.480900
vt 0.481000 0.447700
vt 0.700277 0.107158
vt 0.441050 0.626956
vt 0.647577 0.249843
vt 0.471764 0.452812
vt 0.485559 0.054997
vt 0.461200 0.342900
vt 0.007953 0.751165
vt 0.268480 0.275066
vt 0.231885 0.406663
vt 0.226396 0.428358
vt 0.157134 0.453162
vt 0.329089 0.769311
vt 0.165803 0.566290
vt 0.014900 0.546100
vt 0.648397 0.053311
vt 0.017600 0.540900
vt 0.486284 0.659021
s 1
usemtl wire_204204204
f 9/1/1 11/2/2 10/3/3
f 17/4/4 19/5/5 16/6/6
f 22/7/7 24/8/8 21/9/9
f 25/10/10 26/11/11 27/12/12
f 14/13/13 12/14/14 13/15/15
f 35/16/16 34/17/17 31/18/18
f 38/19/19 54/20/20 36/21/21
f 39/22/22 47/23/23 40/24/24
f 44/25/25 43/26/26 40/27/24
f 48/28/27 49/29/28 50/30/29
f 49/29/28 53/31/30 50/30/29
f 54/20/20 55/32/31 11/2/2
f 56/33/32 57/34/33 58/35/34
f 56/33/32 58/35/34 59/36/35
f 1/37/36 3/38/37 63/39/38
f 63/39/38 62/40/39 58/35/34
f 52/41/40 64/42/41 49/29/28
f 64/42/41 65/43/42 49/29/28
f 69/44/43 70/45/44 68/46/45
f 71/47/46 18/48/47 17/4/4
f 71/47/46 61/49/48 18/48/47
f 72/50/49 75/51/50 73/52/51
f 87/53/52 86/54/53 29/55/54
f 89/56/55 90/57/56 91/58/57
f 32/59/58 89/56/55 23/60/59
f 32/59/58 92/61/60 90/57/56
f 30/62/61 93/63/62 92/61/60
f 29/55/54 22/7/7 20/64/63
f 20/64/63 95/65/64 29/55/54
f 46/66/65 98/67/66 97/68/67
f 84/69/68 103/70/69 85/71/70
f 77/72/71 86/54/53 104/73/72
f 105/74/73 15/75/74 77/72/71
f 105/74/73 106/76/75 107/77/76
f 107/77/76 15/75/74 105/74/73
f 14/13/13 15/75/74 107/77/76
f 13/15/15 71/47/46 14/13/13
f 110/78/77 62/40/39 108/79/78
f 110/78/77 58/35/34 62/40/39
f 112/80/79 59/36/35 58/35/34
f 112/80/79 111/81/80 113/82/81
f 122/83/82 123/84/83 121/85/84
f 128/86/85 6/87/86 125/88/87
f 98/67/66 100/89/88 101/90/89
f 101/90/89 7/91/90 98/67/66
f 129/92/91 130/93/92 97/94/67
f 134/95/93 135/96/94 39/22/22
f 138/97/95 139/98/96 116/99/97
f 144/100/98 141/101/99 57/34/33
f 141/101/99 1/37/36 63/39/38
f 143/102/100 4/103/101 2/104/102
f 88/105/103 86/54/53 19/5/5
f 142/106/104 22/7/7 143/102/100
f 32/59/58 23/60/59 60/107/105
f 60/107/105 140/108/106 32/59/58
f 147/109/107 146/110/108 145/111/109
f 149/112/110 148/113/111 146/110/108
f 133/114/112 132/115/113 152/116/114
f 131/117/115 53/31/30 152/116/114
f 73/52/51 152/116/114 53/31/30
f 75/51/50 72/50/49 156/118/116
f 157/119/117 151/120/118 158/121/119
f 152/116/114 73/52/51 158/121/119
f 161/122/120 159/123/121 151/120/118
f 160/124/122 146/110/108 148/113/111
f 145/111/109 146/110/108 78/125/123
f 157/119/117 156/118/116 79/126/124
f 163/127/125 82/128/126 162/129/127
f 83/130/128 163/127/125 66/131/129
f 162/129/127 64/42/41 163/127/125
f 27/132/12 155/133/130 82/128/126
f 149/112/110 137/134/131 136/135/132
f 36/21/21 48/28/27 127/136/133
f 54/20/20 38/19/19 55/32/31
f 9/1/1 10/3/3 8/137/134
f 106/76/75 76/138/135 10/3/3
f 10/3/3 76/138/135 69/44/43
f 106/76/75 10/3/3 11/2/2
f 166/139/136 165/140/137 12/14/14
f 167/141/138 111/81/80 109/142/139
f 111/81/80 167/141/138 119/143/140
f 123/144/83 122/145/82 126/146/141
f 70/45/44 69/44/43 103/70/69
f 85/71/70 5/147/142 82/128/126
f 84/69/68 70/45/44 103/70/69
f 16/6/6 19/5/5 86/54/53
f 46/66/65 43/26/26 124/148/143
f 43/26/26 42/149/144 124/148/143
f 63/39/38 58/35/34 57/34/33
f 11/2/2 9/1/1 54/20/20
f 45/150/145 124/148/143 42/149/144
f 15/75/74 17/4/4 16/6/6
f 95/65/64 20/64/63 169/151/146
f 31/18/18 78/125/123 79/126/124
f 31/18/18 79/126/124 80/152/147
f 20/64/63 22/7/7 21/9/9
f 29/55/54 81/153/148 5/147/142
f 81/154/148 94/155/149 28/156/150
f 1/37/36 2/104/102 3/38/37
f 92/61/60 31/18/18 30/62/61
f 17/4/4 18/48/47 19/5/5
f 23/157/59 24/8/8 22/7/7
f 27/12/12 81/158/148 25/10/10
f 81/154/148 28/156/150 25/159/10
f 67/160/151 66/131/129 52/41/40
f 31/18/18 33/161/152 30/62/61
f 36/21/21 54/20/20 37/162/153
f 97/94/67 41/163/154 39/22/22
f 39/22/22 40/24/24 97/94/67
f 42/149/144 43/26/26 44/25/25
f 48/28/27 50/30/29 51/164/155
f 49/29/28 48/28/27 52/41/40
f 54/20/20 9/1/1 8/137/134
f 59/165/35 60/107/105 56/166/32
f 3/38/37 61/49/48 62/40/39
f 3/38/37 62/40/39 63/39/38
f 68/46/45 8/137/134 69/44/43
f 85/71/70 83/130/128 84/69/68
f 5/147/142 81/153/148 82/128/126
f 95/65/64 94/155/149 29/55/54
f 89/56/55 32/59/58 90/57/56
f 31/18/18 80/152/147 35/16/16
f 27/12/12 80/152/147 155/133/130
f 17/4/4 14/13/13 71/47/46
f 46/167/65 97/168/67 40/169/24
f 98/67/66 99/170/156 97/68/67
f 98/67/66 46/66/65 100/89/88
f 101/90/89 102/171/157 7/91/90
f 101/90/89 100/89/88 102/171/157
f 86/54/53 87/53/52 104/73/72
f 71/47/46 62/40/39 61/49/48
f 108/79/78 71/47/46 13/15/15
f 109/142/139 108/79/78 13/15/15
f 58/35/34 111/81/80 112/80/79
f 112/172/79 115/173/158 116/99/97
f 113/82/81 114/174/159 112/80/79
f 115/173/158 44/175/25 117/176/160
f 115/173/158 114/177/159 118/178/161
f 42/179/144 118/180/161 45/181/145
f 123/182/83 7/91/90 102/171/157
f 118/180/161 120/183/162 45/181/145
f 118/184/161 119/143/140 120/185/162
f 120/186/162 119/187/140 121/85/84
f 119/187/140 122/83/82 121/85/84
f 121/188/84 123/182/83 102/171/157
f 102/171/157 124/148/143 121/188/84
f 38/19/19 123/144/83 126/146/141
f 6/87/86 123/84/83 125/88/87
f 127/136/133 125/189/87 36/21/21
f 38/19/19 36/21/21 125/189/87
f 6/190/86 98/67/66 7/91/90
f 128/191/85 127/136/133 51/164/155
f 128/86/85 99/192/156 6/87/86
f 129/92/91 128/191/85 51/164/155
f 134/95/93 41/163/154 133/114/112
f 99/193/156 129/92/91 97/94/67
f 97/94/67 130/93/92 41/163/154
f 129/92/91 131/117/115 130/93/92
f 130/93/92 132/115/113 41/163/154
f 44/175/25 135/96/94 117/176/160
f 39/22/22 135/96/94 47/23/23
f 137/134/131 135/96/94 136/135/132
f 115/173/158 138/97/95 116/99/97
f 137/134/131 138/97/95 117/176/160
f 59/165/35 139/98/96 60/107/105
f 57/34/33 60/194/105 144/100/98
f 116/99/97 59/165/35 112/172/79
f 139/98/96 147/109/107 140/108/106
f 139/98/96 140/108/106 60/107/105
f 1/37/36 143/102/100 2/104/102
f 141/101/99 63/39/38 57/34/33
f 141/101/99 142/106/104 1/37/36
f 146/110/108 137/134/131 149/112/110
f 143/102/100 88/105/103 4/103/101
f 4/103/101 88/105/103 19/5/5
f 4/103/101 19/5/5 18/48/47
f 143/102/100 22/7/7 88/105/103
f 144/100/98 23/157/59 22/7/7
f 22/7/7 142/106/104 144/100/98
f 60/194/105 23/157/59 144/100/98
f 142/106/104 141/101/99 144/100/98
f 32/59/58 140/108/106 147/109/107
f 150/195/163 134/95/93 133/114/112
f 136/135/132 134/95/93 149/112/110
f 149/112/110 151/120/118 148/113/111
f 134/95/93 136/135/132 135/96/94
f 72/50/49 53/31/30 65/43/42
f 133/114/112 152/116/114 150/195/163
f 132/115/113 131/117/115 152/116/114
f 132/115/113 130/93/92 131/117/115
f 131/117/115 50/30/29 53/31/30
f 74/196/164 65/43/42 153/197/165
f 156/118/116 153/197/165 155/133/130
f 65/43/42 64/42/41 153/197/165
f 64/42/41 154/198/166 153/197/165
f 150/195/163 158/121/119 151/120/118
f 156/118/116 72/50/49 74/196/164
f 156/118/116 157/119/117 75/51/50
f 157/119/117 158/121/119 75/51/50
f 158/121/119 73/52/51 75/51/50
f 78/125/123 161/122/120 79/126/124
f 157/119/117 161/122/120 151/120/118
f 151/120/118 159/123/121 148/113/111
f 160/124/122 148/113/111 159/123/121
f 160/124/122 78/125/123 146/110/108
f 78/125/123 31/18/18 145/111/109
f 160/124/122 159/123/121 78/125/123
f 82/128/126 154/198/166 162/129/127
f 161/122/120 157/119/117 79/126/124
f 79/126/124 156/118/116 80/152/147
f 155/133/130 80/152/147 156/118/116
f 83/130/128 70/45/44 84/69/68
f 163/127/125 64/42/41 66/131/129
f 137/134/131 139/98/96 138/97/95
f 66/131/129 68/46/45 70/45/44
f 162/129/127 154/198/166 64/42/41
f 83/130/128 82/128/126 163/127/125
f 154/198/166 155/133/130 153/197/165
f 82/128/126 81/153/148 27/132/12
f 53/31/30 49/29/28 65/43/42
f 133/114/112 41/163/154 132/115/113
f 32/59/58 145/111/109 31/18/18
f 50/30/29 129/92/91 51/164/155
f 165/140/137 126/146/141 164/199/167
f 127/136/133 48/28/27 51/164/155
f 38/19/19 166/139/136 55/32/31
f 76/138/135 105/74/73 77/72/71
f 8/137/134 37/162/153 54/20/20
f 10/3/3 69/44/43 8/137/134
f 55/32/31 12/14/14 11/2/2
f 164/199/167 109/142/139 165/140/137
f 12/14/14 165/140/137 13/15/15
f 165/140/137 109/142/139 13/15/15
f 109/142/139 111/81/80 110/78/77
f 122/145/82 164/199/167 126/146/141
f 119/143/140 113/82/81 111/81/80
f 119/143/140 167/141/138 122/145/82
f 113/82/81 118/184/161 114/174/159
f 77/72/71 16/6/6 86/54/53
f 44/175/25 40/24/24 47/23/23
f 77/72/71 168/200/168 76/138/135
f 104/73/72 87/53/52 168/200/168
f 168/200/168 69/44/43 76/138/135
f 85/71/70 168/200/168 5/147/142
f 100/89/88 124/148/143 102/171/157
f 5/147/142 87/53/52 29/55/54
f 5/147/142 168/200/168 87/53/52
f 86/54/53 22/7/7 29/55/54
f 23/157/59 89/201/55 24/8/8
f 2/104/102 61/49/48 3/38/37
f 18/48/47 2/104/102 4/103/101
f 48/28/27 67/160/151 52/41/40
f 8/137/134 67/160/151 37/162/153
f 52/41/40 66/131/129 64/42/41
f 48/28/27 36/21/21 37/162/153
f 46/66/65 40/27/24 43/26/26
f 35/16/16 27/12/12 26/11/11
f 107/77/76 106/76/75 11/2/2
f 107/77/76 11/2/2 14/13/13
f 124/148/143 45/150/145 120/202/162
f 120/202/162 121/188/84 124/148/143
f 81/154/148 29/55/54 94/155/149
f 35/16/16 80/152/147 27/12/12
f 14/13/13 11/2/2 12/14/14
f 92/61/60 32/59/58 31/18/18
f 67/160/151 68/46/45 66/131/129
f 68/46/45 67/160/151 8/137/134
f 85/71/70 82/128/126 83/130/128
f 95/65/64 96/203/169 94/155/149
f 17/4/4 15/75/74 14/13/13
f 71/47/46 108/79/78 62/40/39
f 109/142/139 110/78/77 108/79/78
f 58/35/34 110/78/77 111/81/80
f 112/172/79 114/177/159 115/173/158
f 115/173/158 118/178/161 44/175/25
f 42/179/144 44/204/25 118/180/161
f 123/182/83 6/190/86 7/91/90
f 38/19/19 125/189/87 123/144/83
f 127/136/133 128/191/85 125/189/87
f 6/190/86 99/170/156 98/67/66
f 129/92/91 99/193/156 128/191/85
f 134/95/93 39/22/22 41/163/154
f 44/175/25 47/23/23 135/96/94
f 137/134/131 117/176/160 135/96/94
f 115/173/158 117/176/160 138/97/95
f 59/165/35 116/99/97 139/98/96
f 57/34/33 56/33/32 60/194/105
f 1/37/36 142/106/104 143/102/100
f 146/110/108 147/109/107 137/134/131
f 150/195/163 149/112/110 134/95/93
f 149/112/110 150/195/163 151/120/118
f 72/50/49 73/52/51 53/31/30
f 74/196/164 72/50/49 65/43/42
f 156/118/116 74/196/164 153/197/165
f 150/195/163 152/116/114 158/121/119
f 78/125/123 159/123/121 161/122/120
f 82/128/126 155/133/130 154/198/166
f 83/130/128 66/131/129 70/45/44
f 137/134/131 147/109/107 139/98/96
f 32/59/58 147/109/107 145/111/109
f 50/30/29 131/117/115 129/92/91
f 165/140/137 166/139/136 126/146/141
f 38/19/19 126/146/141 166/139/136
f 76/138/135 106/76/75 105/74/73
f 55/32/31 166/139/136 12/14/14
f 164/199/167 167/141/138 109/142/139
f 122/145/82 167/141/138 164/199/167
f 113/82/81 119/143/140 118/184/161
f 77/72/71 15/75/74 16/6/6
f 77/72/71 104/73/72 168/200/168
f 168/200/168 103/70/69 69/44/43
f 85/71/70 103/70/69 168/200/168
f 100/89/88 46/66/65 124/148/143
f 86/54/53 88/105/103 22/7/7
f 2/104/102 18/48/47 61/49/48
f 48/28/27 37/162/153 67/160/151
