# Blender 4.0.2
# www.blender.org
mtllib mesh.mtl
o Cylinder001_Retopo
v 6.384739 5.282969 -1.313767
v 0.744525 9.124452 -1.196607
v 0.616776 -0.152165 2.818115
v 2.281932 3.855488 4.750813
v 1.084292 8.207664 2.189939
v 6.920209 4.359046 0.693337
v 5.605411 5.957942 1.244495
v 1.129043 9.134795 -0.368931
v 1.351669 9.379759 -0.984550
v 1.178395 8.918606 -1.049611
v 0.266452 9.480506 -0.496089
v 0.485750 9.529492 -0.260141
v 0.715378 9.453199 -1.291772
v -0.048504 9.678001 -1.217985
v -1.173177 0.686593 5.133368
v -2.581301 2.345554 4.953370
v -1.070027 1.243642 -7.190663
v 1.649441 0.849061 -7.024488
v -5.183877 1.266590 2.127987
v -4.520224 0.018294 0.976279
v -5.344932 5.333747 0.730445
v 4.295594 5.450672 -4.390408
v 6.641777 4.105993 -1.489337
v -3.284901 5.072033 3.545930
v 6.180298 3.381225 1.614772
v -6.565899 5.272913 -2.404570
v -4.719557 7.065598 -0.837231
v -3.024921 8.016506 -2.636924
v 0.099919 6.151611 5.818281
v -0.809269 8.582752 0.450951
v 0.112337 8.762135 0.956966
v 2.589486 7.799916 0.627280
v 0.965864 9.301228 -1.341301
v 0.970210 9.327425 -0.312124
v -3.722306 -0.208144 -2.843904
v 1.154621 0.722552 -1.247339
v 5.245004 0.228312 1.844253
v 6.582124 2.427842 -0.150478
v 5.243069 0.670066 -4.663610
v 4.494986 3.626030 -6.628654
v 1.721022 1.655636 -7.775171
v 5.250800 0.027976 -2.319808
v 2.478921 0.153396 -3.422604
v -5.331089 0.844000 -3.045905
v 6.417238 3.446586 -2.741780
v 2.635412 6.014972 -5.541043
v 1.094873 3.814211 -7.879051
v -5.253135 5.444000 -4.761165
v -0.931695 8.914953 -0.765110
v 0.131729 7.501653 -3.982859
v -2.821527 7.764438 0.637154
v 3.062894 0.341696 3.677615
v 2.618023 1.686830 4.941082
vn -0.4483 -0.1759 0.8764
vn 0.4876 0.0810 0.8693
vn 0.0220 0.4777 0.8783
vn 0.9853 0.0009 0.1710
vn 0.5356 0.5260 0.6607
vn 0.2523 0.8822 0.3976
vn -0.7863 0.3541 0.5063
vn -0.9433 0.3142 -0.1070
vn -0.7838 -0.3469 0.5151
vn -0.3374 0.8950 0.2918
vn -0.6886 0.4207 0.5906
vn 0.6430 0.5473 -0.5358
vn 0.8609 -0.2261 0.4558
vn 0.9244 0.3571 0.1342
vn -0.8099 0.5282 -0.2552
vn -0.7552 -0.6323 0.1727
vn -0.9502 -0.3093 -0.0396
vn 0.0064 -0.9916 -0.1289
vn -0.1660 -0.9845 -0.0572
vn -0.2828 -0.9306 -0.2326
vn 0.8729 0.2209 0.4350
vn 0.6303 -0.7375 0.2424
vn 0.9506 -0.2992 0.0829
vn 0.9678 0.0325 -0.2495
vn 0.9009 0.1594 -0.4037
vn 0.6187 -0.6388 -0.4573
vn 0.6599 0.1928 -0.7262
vn 0.0034 -0.9850 0.1728
vn 0.2918 -0.7515 0.5916
vn -0.1879 -0.5310 0.8263
vn 0.1791 -0.3801 -0.9074
vn 0.6011 0.6894 -0.4042
vn 0.6223 0.6765 -0.3938
vn 0.5206 0.8500 0.0811
vn -0.3137 -0.5027 -0.8055
vn -0.6536 0.3395 -0.6764
vn 0.0068 0.3559 -0.9345
vn -0.7489 -0.5768 -0.3261
vn -0.4016 0.8811 -0.2498
vn -0.2192 0.9729 0.0738
vn -0.4759 -0.8545 0.2080
vn 0.3128 0.7840 -0.5362
vn -0.5865 0.7908 0.1753
vn 0.4442 -0.2994 0.8444
vn 0.5429 -0.8344 -0.0957
vn -0.0888 0.9338 0.3466
vn -0.1395 -0.9349 0.3263
vn -0.6870 -0.4770 0.5482
vn 0.1587 -0.8504 -0.5016
vn -0.6220 -0.1899 -0.7596
vn -0.7185 0.5621 -0.4095
vn -0.5241 0.8405 0.1373
vn 0.1804 0.7891 -0.5872
vt 0.351527 0.577011
vt 0.263203 0.669939
vt 0.238327 0.602795
vt 0.156287 0.780621
vt 0.137164 0.733025
vt 0.118941 0.583804
vt 0.280387 0.462333
vt 0.288181 0.384503
vt 0.397748 0.481881
vt 0.117387 0.499753
vt 0.275388 0.527973
vt 0.021507 0.395173
vt 0.008878 0.391253
vt 0.021004 0.372589
vt 0.045403 0.493228
vt 0.027162 0.561507
vt 0.021898 0.541349
vt 0.017978 0.534798
vt 0.589046 0.079459
vt 0.621871 0.147994
vt 0.532306 0.209894
vt 0.202987 0.782216
vt 0.288189 0.825927
vt 0.193546 0.845861
vt 0.122314 0.823313
vt 0.100910 0.862493
vt 0.166905 0.963095
vt 0.166780 0.029580
vt 0.147690 0.118080
vt 0.049892 0.093280
vt 0.481000 0.403000
vt 0.489196 0.254731
vt 0.502600 0.428193
vt 0.422579 0.669588
vt 0.348587 0.748733
vt 0.385031 0.622394
vt 0.691528 0.195860
vt 0.249302 0.127739
vt 0.063210 0.161364
vt 0.100398 0.787500
vt 0.089606 0.633911
vt 0.332643 0.196904
vt 0.268958 0.329954
vt 0.202885 0.176305
vt 0.392977 0.339028
vt 0.170706 0.380521
vt 0.106661 0.449666
vt 0.442897 0.454026
vt 0.438653 0.309312
vt 0.114985 0.208261
vt 0.046455 0.431835
vt 0.180432 0.470646
vt 0.323096 0.710606
vt 0.228163 0.927675
vt 0.108130 0.518438
vt 0.020584 0.545301
vt 0.039063 0.518293
vt 0.010300 0.521600
vt 0.016200 0.507100
vt 0.288792 0.114063
vt 0.029131 0.415443
vt 0.018817 0.423792
vt 0.502600 0.753489
vt 0.494788 0.807089
vt 0.480274 0.700801
vt 0.481000 0.604700
vt 0.480892 0.528470
vt 0.490946 0.654554
vt 0.481744 0.460384
vt 0.481000 0.123582
vt 0.485559 0.054997
vt 0.007953 0.751165
vt 0.228038 0.421867
vt 0.119651 0.314788
vt 0.015723 0.443169
vt 0.527973 0.014348
vt 0.648397 0.053311
s 1
usemtl wire_204204204
f 16/1/1 4/2/2 29/3/3
f 6/4/4 7/5/5 5/6/6
f 21/7/7 26/8/8 19/9/9
f 29/3/3 30/10/10 24/11/11
f 33/12/12 9/13/13 10/14/14
f 2/15/15 10/16/14 8/17/16
f 8/17/16 34/18/17 2/15/15
f 43/19/18 36/20/19 35/21/20
f 4/2/2 6/4/4 29/3/3
f 25/22/21 37/23/22 38/24/23
f 38/24/23 23/25/24 25/22/21
f 38/24/23 45/26/25 23/25/24
f 45/26/25 38/24/23 39/27/26
f 39/28/26 40/29/27 45/30/25
f 37/31/22 3/32/28 43/33/18
f 3/34/28 52/35/29 15/36/30
f 36/20/19 3/37/28 35/21/20
f 40/29/27 39/28/26 41/38/31
f 40/29/27 22/39/32 45/30/25
f 45/26/25 1/40/33 23/25/24
f 32/41/34 7/5/5 1/40/33
f 32/41/34 5/6/6 7/5/5
f 1/40/33 10/16/14 32/41/34
f 33/12/12 10/14/14 22/39/32
f 22/39/32 40/29/27 33/12/12
f 17/42/35 48/43/36 47/44/37
f 17/42/35 44/45/38 48/43/36
f 44/45/38 26/8/8 48/43/36
f 28/46/39 26/8/8 49/47/40
f 20/48/41 44/45/38 35/49/20
f 46/50/42 47/44/37 2/51/15
f 28/46/39 49/47/40 2/51/15
f 30/10/10 51/52/43 24/11/11
f 2/15/15 49/47/40 30/10/10
f 40/29/27 47/44/37 46/50/42
f 15/36/30 19/9/9 20/48/41
f 53/53/44 4/2/2 15/36/30
f 38/24/23 37/23/22 42/54/45
f 3/34/28 37/23/22 52/35/29
f 6/4/4 5/6/6 29/3/3
f 30/10/10 29/3/3 31/55/46
f 31/55/46 2/15/15 30/10/10
f 4/2/2 16/1/1 15/36/30
f 8/17/16 10/16/14 9/56/13
f 2/57/15 34/18/17 12/58/47
f 2/57/15 12/58/47 11/59/48
f 17/42/35 18/60/49 35/49/20
f 24/11/11 16/1/1 29/3/3
f 13/61/50 2/51/15 14/62/51
f 43/63/18 35/64/20 18/65/49
f 4/2/2 25/22/21 6/4/4
f 25/22/21 23/25/24 6/4/4
f 39/28/26 18/60/49 41/38/31
f 39/66/26 42/67/45 18/68/49
f 42/69/45 37/31/22 43/33/18
f 43/19/18 3/37/28 36/20/19
f 3/34/28 15/36/30 20/48/41
f 20/70/41 35/71/20 3/32/28
f 35/49/20 44/45/38 17/42/35
f 17/42/35 41/38/31 18/60/49
f 47/44/37 40/29/27 41/38/31
f 10/16/14 1/40/33 45/26/25
f 22/72/32 10/16/14 45/26/25
f 33/12/12 40/29/27 46/50/42
f 17/42/35 47/44/37 41/38/31
f 44/45/38 19/9/9 26/8/8
f 26/8/8 21/7/7 27/73/52
f 21/7/7 49/47/40 27/73/52
f 49/47/40 26/8/8 27/73/52
f 48/43/36 26/8/8 28/46/39
f 28/46/39 50/74/53 48/43/36
f 48/43/36 50/74/53 47/44/37
f 50/74/53 2/51/15 47/44/37
f 2/51/15 13/61/50 46/50/42
f 50/74/53 28/46/39 2/51/15
f 49/47/40 51/52/43 30/10/10
f 51/52/43 21/7/7 24/11/11
f 51/52/43 49/47/40 21/7/7
f 46/50/42 13/61/50 33/12/12
f 5/6/6 10/16/14 2/15/15
f 52/35/29 53/53/44 15/36/30
f 4/2/2 53/53/44 25/22/21
f 53/53/44 37/23/22 25/22/21
f 37/23/22 53/53/44 52/35/29
f 42/54/45 39/27/26 38/24/23
f 5/6/6 31/55/46 29/3/3
f 2/15/15 31/55/46 5/6/6
f 19/9/9 24/11/11 21/7/7
f 6/4/4 1/40/33 7/5/5
f 6/4/4 23/25/24 1/40/33
f 19/9/9 15/36/30 16/1/1
f 14/62/51 2/51/15 11/75/48
f 43/19/18 18/76/49 42/77/45
f 20/48/41 19/9/9 44/45/38
f 5/6/6 32/41/34 10/16/14
f 19/9/9 16/1/1 24/11/11
